<mxfile host="app.diagrams.net" modified="2023-11-12T05:33:35.104Z" agent="Mozilla/5.0 (Macintosh; Intel Mac OS X 10_15_7) AppleWebKit/537.36 (KHTML, like Gecko) Chrome/119.0.0.0 Safari/537.36" etag="GhwQBYzBB1n69tgA294b" version="22.1.0" type="github">
  <diagram id="C5RBs43oDa-KdzZeNtuy" name="Page-1">
    <mxGraphModel dx="954" dy="642" grid="1" gridSize="10" guides="1" tooltips="1" connect="1" arrows="1" fold="1" page="1" pageScale="1" pageWidth="827" pageHeight="1169" math="0" shadow="0">
      <root>
        <mxCell id="WIyWlLk6GJQsqaUBKTNV-0" />
        <mxCell id="WIyWlLk6GJQsqaUBKTNV-1" parent="WIyWlLk6GJQsqaUBKTNV-0" />
        <mxCell id="KzaTENhBOtcWqGC4Yrln-3" value="" style="edgeStyle=orthogonalEdgeStyle;rounded=0;orthogonalLoop=1;jettySize=auto;html=1;" edge="1" parent="WIyWlLk6GJQsqaUBKTNV-1" source="KzaTENhBOtcWqGC4Yrln-0" target="KzaTENhBOtcWqGC4Yrln-2">
          <mxGeometry relative="1" as="geometry" />
        </mxCell>
        <mxCell id="KzaTENhBOtcWqGC4Yrln-0" value="Start" style="ellipse;whiteSpace=wrap;html=1;" vertex="1" parent="WIyWlLk6GJQsqaUBKTNV-1">
          <mxGeometry x="373.5" y="110" width="80" height="40" as="geometry" />
        </mxCell>
        <mxCell id="KzaTENhBOtcWqGC4Yrln-1" value="Start" style="ellipse;whiteSpace=wrap;html=1;" vertex="1" parent="WIyWlLk6GJQsqaUBKTNV-1">
          <mxGeometry x="373.5" y="530" width="80" height="40" as="geometry" />
        </mxCell>
        <mxCell id="KzaTENhBOtcWqGC4Yrln-5" value="" style="edgeStyle=orthogonalEdgeStyle;rounded=0;orthogonalLoop=1;jettySize=auto;html=1;" edge="1" parent="WIyWlLk6GJQsqaUBKTNV-1" source="KzaTENhBOtcWqGC4Yrln-2" target="KzaTENhBOtcWqGC4Yrln-4">
          <mxGeometry relative="1" as="geometry" />
        </mxCell>
        <mxCell id="KzaTENhBOtcWqGC4Yrln-2" value="Input Alas" style="shape=parallelogram;perimeter=parallelogramPerimeter;whiteSpace=wrap;html=1;fixedSize=1;" vertex="1" parent="WIyWlLk6GJQsqaUBKTNV-1">
          <mxGeometry x="353.5" y="190" width="120" height="40" as="geometry" />
        </mxCell>
        <mxCell id="KzaTENhBOtcWqGC4Yrln-7" value="" style="edgeStyle=orthogonalEdgeStyle;rounded=0;orthogonalLoop=1;jettySize=auto;html=1;" edge="1" parent="WIyWlLk6GJQsqaUBKTNV-1" source="KzaTENhBOtcWqGC4Yrln-4" target="KzaTENhBOtcWqGC4Yrln-6">
          <mxGeometry relative="1" as="geometry" />
        </mxCell>
        <mxCell id="KzaTENhBOtcWqGC4Yrln-4" value="Input Tinggi" style="shape=parallelogram;perimeter=parallelogramPerimeter;whiteSpace=wrap;html=1;fixedSize=1;" vertex="1" parent="WIyWlLk6GJQsqaUBKTNV-1">
          <mxGeometry x="353.5" y="270" width="120" height="40" as="geometry" />
        </mxCell>
        <mxCell id="KzaTENhBOtcWqGC4Yrln-13" style="edgeStyle=orthogonalEdgeStyle;rounded=0;orthogonalLoop=1;jettySize=auto;html=1;entryX=0.5;entryY=0;entryDx=0;entryDy=0;" edge="1" parent="WIyWlLk6GJQsqaUBKTNV-1" source="KzaTENhBOtcWqGC4Yrln-6" target="KzaTENhBOtcWqGC4Yrln-10">
          <mxGeometry relative="1" as="geometry" />
        </mxCell>
        <mxCell id="KzaTENhBOtcWqGC4Yrln-6" value="Luas = 1/2 * alas * tinggi" style="whiteSpace=wrap;html=1;" vertex="1" parent="WIyWlLk6GJQsqaUBKTNV-1">
          <mxGeometry x="341" y="350" width="145" height="50" as="geometry" />
        </mxCell>
        <mxCell id="KzaTENhBOtcWqGC4Yrln-14" style="edgeStyle=orthogonalEdgeStyle;rounded=0;orthogonalLoop=1;jettySize=auto;html=1;entryX=0.5;entryY=0;entryDx=0;entryDy=0;" edge="1" parent="WIyWlLk6GJQsqaUBKTNV-1" source="KzaTENhBOtcWqGC4Yrln-10" target="KzaTENhBOtcWqGC4Yrln-1">
          <mxGeometry relative="1" as="geometry" />
        </mxCell>
        <mxCell id="KzaTENhBOtcWqGC4Yrln-10" value="Output Luas" style="shape=parallelogram;perimeter=parallelogramPerimeter;whiteSpace=wrap;html=1;fixedSize=1;" vertex="1" parent="WIyWlLk6GJQsqaUBKTNV-1">
          <mxGeometry x="353.5" y="440" width="120" height="40" as="geometry" />
        </mxCell>
        <mxCell id="KzaTENhBOtcWqGC4Yrln-15" value="Luas Segitiga" style="text;html=1;align=center;verticalAlign=middle;resizable=0;points=[];autosize=1;strokeColor=none;fillColor=none;" vertex="1" parent="WIyWlLk6GJQsqaUBKTNV-1">
          <mxGeometry x="363.5" y="60" width="100" height="30" as="geometry" />
        </mxCell>
      </root>
    </mxGraphModel>
  </diagram>
</mxfile>
